<svg id="Layer_1" data-name="Layer 1" xmlns="http://www.w3.org/2000/svg" viewBox="0 0 341.12 64"><defs><style>.cls-1{fill:#fdfdfe;}.cls-2{fill:#3072c1;}.cls-3{fill:#3172c1;}.cls-4{fill:#3172c2;}.cls-5{fill:#3273c2;}.cls-6{fill:#3173c2;}.cls-7{fill:#3374c2;}.cls-8{fill:#3474c2;}.cls-9{fill:#3373c2;}.cls-10{fill:#3776c3;}.cls-11{fill:#3978c4;}.cls-12{fill:#3676c3;}.cls-13{fill:#cadbef;}.cls-14{fill:#cbdcef;}.cls-15{fill:#cdddf0;}.cls-16{fill:#f6f9fc;}.cls-17{fill:#dce7f4;}.cls-18{fill:#f0f4fa;}.cls-19{fill:#f4f7fb;}.cls-20{fill:#eaf0f8;}.cls-21{fill:#ecf2f9;}.cls-22{fill:#dfe9f5;}.cls-23{fill:#f2f2f2;}.cls-24{fill:#bad0ea;}</style></defs><path class="cls-1" d="M45.61,11H347.12V75H6V11H41.77c.19,1.14-.82,1.35-1.46,1.8A11.49,11.49,0,0,0,36,25.37c.84,2.69,2.9,4.07,5.43,4.92,3.48,1.15,3.7,1.52,2.33,4.94-.56,1.42-.82,3.1-2.45,3.91-2.17-.34-2.28-3.08-4.58-3.63-1.85.84-2.67,2.93-4,4.46-2.79,3.13-3,3.18-5.81.15a1.59,1.59,0,0,0-1.15-.63c-1,.16-1.4,1.11-2,1.83A146.55,146.55,0,0,0,13.27,56.46c-.27.45-.57.9-.82,1.36-3.31,6.12-2.15,8.11,4.74,8.12,12.24,0,24.48,0,36.72,0,1.55,0,3.2-.29,4.56,1-.54,2.73-3,3.79-4.91,5.77A7,7,0,0,0,58.19,72a41.61,41.61,0,0,0,7-3.87A15.69,15.69,0,0,1,76,65.27c1.12.08,2.34.33,3.58-.6-1.45-2.19-3.29-3-6-3-8.3,0-16.52,1.35-24.81,1.51-2.83.05-5-.78-6.42-3.24-1.74-3-4.36-4-7.77-3.82-4.14.19-8.3.15-12.45,0-3.22-.11-4-1.48-2.51-4.29,1.64-3,3-6.23,5.59-8.84,2.6,1.42,2.81,4.47,5,6,1.43-.46,1.4-1.95,2-3,.76-1.38,1.38-2.85,2.17-4.23.68-1.19,1.37-2.6,3-2.46S39.08,41,39.55,42.1a21.22,21.22,0,0,0,2.15,4.84c1.15-1.19,1.3-2.68,1.68-4a157.07,157.07,0,0,1,5.11-15.65,35,35,0,0,1,5.27-9c2.83-3.53,4.23-3.41,5.89.69,1.48,3.63,3.11,7.18,4.53,10.82a5.63,5.63,0,0,0,1.37,2.46c1.32-1,.54-3.09,2.84-4,3.67,4.9,6,10.74,9.1,16,1.28.13,1.55-1.38,3.36-1,.68.19.84,1.46,1.25,2.5,2.17,5.5,4.53,10.93,6.65,16.45,1.29,3.34,1.52,3.4,5.5,2.7C91,54.65,84.62,46,79.89,36.54c-3.76,2-4.1,1.87-6.07-2-1.78-3.47-3.93-6.72-5.88-10.06-4.12,2.09-4.5,1.92-6.47-2.32-1.16-2.49-2.06-5.1-3.46-7.48a1.41,1.41,0,0,0-.45-.53,1.17,1.17,0,0,0-.86-.1c-1.63.62-2.79,3.14-4.66,2.11C49.66,14.86,47.18,13.41,45.61,11Z" transform="translate(-6 -11)"/><path class="cls-2" d="M45.61,11a16.5,16.5,0,0,1,7,5.49l5.09-4.62L64.1,25.69c2.13-.39,2.3-2.12,3.74-3.09q4.48,7.66,8.94,15.28c1.67-.9,1.41-2.68,3-3.74,5,10.8,12.19,20.38,16,32-1.24.09-2.3.1-3.32.27-2,.33-3-.32-3.78-2.29-2.38-6.31-5-12.54-7.53-18.78-.26-.64-.2-1.5-1-1.9-1.2.49-.69,2.18-2.4,2.89L68,28.6c-1.15,2-.61,4.2-2.36,6.51L57.3,15.68C47.38,24.92,46.82,37.84,42,49.22c-2.34-3.15-2.67-6.76-4.57-10.07C33.9,42.54,32.82,47,30.83,51.21c-2.9-2-3.5-5.16-5.53-7.84L19,54.49c1.4,1.29,2.62.85,3.72.87a88.13,88.13,0,0,0,9.89-.1c5.06-.52,9,.78,11.29,5.57.74,1.54,2.15,1.54,3.56,1.46,8.7-.48,17.41-.81,26.09-1.57,3.89-.34,5.55,2.11,8.09,4.38-2.63,1.49-5,.89-7.21.8a12.07,12.07,0,0,0-7.71,2.16c-2.78,1.91-5.88,3.35-8.83,5-2,1.12-4,.71-6.74.49L59,66.65H48.82l-35.11,0c-3.63,0-4.5-1.09-3.66-4.66a18.92,18.92,0,0,1,2.22-5.54A140.15,140.15,0,0,1,25.73,37.6c1.88,1.12,2.13,3.29,3.95,4.65l6.92-8.66c2.16,1.2,3.17,3.3,4.61,5.71l2.86-7.15c-.35-.37-.48-.63-.64-.66-5.5-1-8-3-8.55-7-.69-5,1.19-11.64,6.18-12.91.27-.07.48-.37.71-.56Z" transform="translate(-6 -11)"/><path class="cls-2" d="M99.84,27.31c.09,3.21-2.4,6.61,1.16,9.59.7.58.1,1.51-.75,2.05-2.23,1.43-7.77.55-9.72-1.72C95.37,33.6,94.59,28,95.45,23c.26-1.55.21-2.82-1.6-3.95s-.44-2.55,1-3.2a9,9,0,0,1,10.55,3.1c1.87,2.63,3.35,5.57,6.36,8.51-.28-3.46,2.16-6.38-1.65-8.67-1.32-.79-.7-2.19.61-2.68a15.93,15.93,0,0,1,8.5-.28,1.83,1.83,0,0,1,1.42,1.55A1.39,1.39,0,0,1,119.57,19c-1.9.57-2.2,2-2.43,3.66-.58,4.18-1.21,8.35-2,12.49-.34,1.86-.78,3.88-3.1,4.34s-3.49-1.11-4.6-2.72L100.72,27Z" transform="translate(-6 -11)"/><path class="cls-2" d="M149,24.33c2.66-1.66,5.19-3.49,8.09-1.62,3.11,2,2.62,5.29,2.19,8.32-.8,5.62-4.4,8.47-10.82,8.76-1.22,2,1.16,2.57,1.65,3.87-2,2.48-8.91,2.6-10.79.23a1.75,1.75,0,0,1-.07-2.31c2.64-3.73,1.26-8.15,2.12-12.19a1.61,1.61,0,0,0-.76-1.6c-2.19-1.78-2.09-2.4.49-3.69,1-.47,2-.8,2.91-1.26C146.09,21.81,148.05,21.26,149,24.33Z" transform="translate(-6 -11)"/><path class="cls-2" d="M212.27,20.47c-2,.31-1.86,1.84-2.63,2.63s-1.87,1.52-3.11,1A2.55,2.55,0,0,1,205,21c.6-3.79,2.57-5.26,6.4-5.12a90.61,90.61,0,0,0,12.11-.2c2.47-.24,3.23,1.09,4,2.74.86,1.84,1,3.71-.67,5.22-1.31,1.18-2.5.77-3.52-.54-.62-.81-.66-2-1.87-2.66-1.44,1.72-.89,3.83-1.28,5.67a50.41,50.41,0,0,0-.64,6.28c-.12,1.41-.05,2.57,1.48,3.48,1.83,1.1,1,2.45-.55,3a23.16,23.16,0,0,1-11,.43,2,2,0,0,1-1.84-1.54,1.67,1.67,0,0,1,1.31-1.92,2.26,2.26,0,0,0,1.75-2A101.07,101.07,0,0,0,212.27,20.47Z" transform="translate(-6 -11)"/><path class="cls-2" d="M179.77,22.5c1.22,4.41-2.45,8.93.87,13.1-2.35,4.42-7.31,5.32-9.71,1.58A34.46,34.46,0,0,1,168,39c-3.64,1.88-7.16.08-7.24-3.95-.11-4.64,1.53-8.71,5.47-11.5,2-1.43,4.32-2.36,6.78-.78a2.77,2.77,0,0,0,3,.06A4.25,4.25,0,0,1,179.77,22.5Z" transform="translate(-6 -11)"/><path class="cls-2" d="M265,35.66c-3.61,4.57-7.68,5.1-9.93,1.64-.1,0-.23,0-.29,0-2.27,1.91-4.81,3.73-7.69,1.79S244.78,34,245.57,31a12,12,0,0,1,5.36-7.55c1.2-.73,2.57-1.5,3.88-1,2.45.84,4.68,1.23,7.2.08,1.23-.57,2.21.27,2,1.88-.26,2.19-.42,4.4-.71,6.59C263.06,32.82,263,34.54,265,35.66Z" transform="translate(-6 -11)"/><path class="cls-2" d="M128,33.79c2.3,2.28,4.06.88,5.84.13,1-.39,1.93-1.25,2.79,0s0,2.26-.92,3A12.91,12.91,0,0,1,123.31,39c-3.35-1.13-4.48-4.17-3.41-8.14,1.47-5.5,8.47-9.95,14.16-9,3.21.54,4.67,3.11,3.32,6.1a8.12,8.12,0,0,1-5.3,4.69C130.88,33,129.67,33.33,128,33.79Z" transform="translate(-6 -11)"/><path class="cls-3" d="M293.7,34c1.87,2.28,3.37,1.25,4.9.61,1.2-.5,2.69-1.71,3.58.12.74,1.54-.63,2.52-1.87,3.2-3.05,1.65-6.24,2.69-9.77,1.82-4.21-1-6-3.94-4.87-8.07a12.77,12.77,0,0,1,12.92-9.24c1.8.1,3.44.6,4.23,2.31a4.81,4.81,0,0,1-.75,5.06C300.12,32.43,297.23,33.4,293.7,34Z" transform="translate(-6 -11)"/><path class="cls-4" d="M266,26.42c1.51-2.75,6.07-4.67,8.56-3.86,1.59.52,1.66,1.8,1.51,3.09-.26,2.3-.68,4.58-1,6.88-.14,1.13-.4,2.51,1.09,2.93,1.3.36,2.26-.56,2.86-1.58a7.17,7.17,0,0,0,.15-7.52c-.76-1.4-1.18-2.92.86-3.62,1.82-.62,3.38-.19,4.19,1.75,2.59,6.22-3.6,15.44-10.37,15.45-4.64,0-6.87-2.32-6.51-6.84a18.7,18.7,0,0,1,.58-3.73C268.41,27.61,267,27,266,26.42Z" transform="translate(-6 -11)"/><path class="cls-3" d="M184.72,20.73l-2.12-.93a1.33,1.33,0,0,1,.1-1.68c2.51-2.3,5.65-2.73,8.85-2.59,1.81.09,1.59,1.67,1.45,2.94-.46,4.07-.85,8.15-1.47,12.2-.31,2-.42,3.73,2.12,4.14-1.12,3.35-6.64,5.93-9.35,4.54-1.35-.69-1.51-1.91-1.36-3.25C183.53,31.09,184.1,26.08,184.72,20.73Z" transform="translate(-6 -11)"/><path class="cls-3" d="M304.38,19.74c.93-2.51,7.07-4.81,9.37-3.54,1.23.68.95,1.79.86,2.8-.38,4.2-.84,8.39-1.22,12.59-.11,1.17-.64,2.37,1.23,3.05,1.67.6.81,2-.08,2.74a9.55,9.55,0,0,1-7.08,2.3c-2-.15-2.69-1.47-2.49-3.31q.64-6.13,1.33-12.26C306.62,21.14,306.62,21.14,304.38,19.74Z" transform="translate(-6 -11)"/><path class="cls-3" d="M236.89,25c2.58-3,4.43-3.52,6.29-1.84a4,4,0,0,1,.62,5.69c-1.68,2.38-3.63,1.34-5.61-.25a26.91,26.91,0,0,0-.9,6.92c-.16,3.31-4.89,5.65-7.67,3.85a2,2,0,0,1-.82-2.2c.31-2,.69-3.95.85-5.93.12-1.48,1.08-3.13-1.5-4.06-1.38-.51-.53-2.3.74-3a38.84,38.84,0,0,1,4.68-1.9C235.93,21.42,236,23.6,236.89,25Z" transform="translate(-6 -11)"/><path class="cls-4" d="M216.86,59.31c-.49,2.14-2.09.91-3.21,1-1.46,6-1.46,6-5,5.6-.83-1.52,0-3.07,0-4.61,0-.81.3-1.7-.72-2.21s-1.34.31-1.84.77c-1.43,1.31-3.34,1.16-5,1.6-.68,1.44,0,2.47,1.33,3.56a8.45,8.45,0,0,1-8.13.37c1.72-3.95,3.22-7.68,1.24-11.77,1.63-1.21,9.18-1.59,10.78-.45,1.31.94,1.69,2.34,1.46,4.39,2.6-2.23,5.39,0,7.79-1.43.42-.24,1.11.45,1.28,1.14A1.67,1.67,0,0,1,216.86,59.31Z" transform="translate(-6 -11)"/><path class="cls-5" d="M315.82,56.8l.24-.22C320,53,320,53,323.29,57.09c-2.92,3.54-3,4.62-.38,5.4,2.14-6,6-8,10.31-5.25.47,4,.3,4.23-3.94,5.47,3.33-.69,3.33-.69,3.28,1.57-4.13,2.5-5.86,2.45-9.43-.34-.79.45-1.58,1-2.42,1.35-1.25.59-2.55,1.11-3.88.19s-.6-2.23-.56-3.43c.05-1.39.89-2.9-.46-4.14A.69.69,0,0,1,315.82,56.8Z" transform="translate(-6 -11)"/><path class="cls-5" d="M301.84,62.37a13,13,0,0,1-.46,2.16c-.64,1.63-2.16,1.64-3.47,1.37s-1.27-1.41-1-2.56a27.93,27.93,0,0,0,.4-3.33c-1.72,1-1.23,2.4-1.33,3.54-.2,2.16-1.65,2.61-3.35,2.47-2-.16-1.41-1.6-1.25-2.87.21-1.71.74-3.51-1.09-4.94,2.05-1.31,3.61-3,6.11-1.22,1,.69,1.94-1,2.88-.78,2.21.44,4.34,1,6.5-.11.19-.1.59.16.87.31a2.31,2.31,0,0,1,.95,3.29c-.91,1.9,2.14,4.92-1.83,5.93-2,.5-3.14.25-3.32-2a1.3,1.3,0,0,0,.07-1.46C302.26,61.78,302,62.17,301.84,62.37Z" transform="translate(-6 -11)"/><path class="cls-6" d="M130.82,64.73c-2.09,2.1-4.41,1.67-6.59,1-1.62-.5,0-1.74-.11-2.58a6,6,0,0,0-3.29-.14c-.44.85,1.35,1.95-.23,2.62a5.83,5.83,0,0,1-5.64-.35A44.68,44.68,0,0,0,122,53.35c.75-1.93,3.55-1.51,4.86.59,1.15,1.82,1.28,4,1.81,6C129.14,61.62,129.33,63.39,130.82,64.73Z" transform="translate(-6 -11)"/><path class="cls-5" d="M141.38,54.69c2.21,6.08,1.18,7.45-5.88,8.94h3.42c1.28,0,2.37.39,2.62,1.77a2.7,2.7,0,0,1-1.43,2.94,8,8,0,0,1-7.64.3c-2-1-1.35-3.38-.93-4.89a4.7,4.7,0,0,0,.32-3c-.69-2.32,1.55-4.54,4.65-4.68C138.19,56,139.84,56.12,141.38,54.69Z" transform="translate(-6 -11)"/><path class="cls-6" d="M334.28,59.11c1.37-2,2.9-3.64,5.55-3.06.58-1.1-1.41-2.08.16-2.86,1.22-.61,2.55-1.3,3.92-.73s.83,1.82.84,3c0,2.85-1.81,5.7.13,8.44-1.49,1.56-3.11,2.23-5,1.5a2.09,2.09,0,0,0-2,.18c-1.85,1-3.24.26-4.36-1.27C332.74,62.41,332.63,60.64,334.28,59.11Z" transform="translate(-6 -11)"/><path class="cls-5" d="M177,60.12c.66-2.46,2.49-3.83,4.35-3.82,3.25,0,1.91,4,4,5.54a3.83,3.83,0,0,0-.15-3.23,1.47,1.47,0,0,1,1.07-2.2c1.35-.44,2,.44,2.29,1.53,1.13,3.79-3,10.66-6.92,11.55a4.59,4.59,0,0,1-1.87.14c-1.69-.33-3.26-1.14-2.84-3.09.46-2.17,2.19-1.82,3.8-1.19C180.69,61.77,180.05,60.8,177,60.12Z" transform="translate(-6 -11)"/><path class="cls-7" d="M270.83,65.29c2.52-4,3.17-7.67,1.49-12.06,2.53-.93,5.07-1.48,8.22.21-3,2-2.25,4.92-2.64,7.49-.12.83-.27,1.78.6,2.28,1.06.61,1.76-.19,2.45-.86.5-.49.87-1.23,1.77-1.1,1.38,4,.8,4.94-3.27,4.75C276.68,65.86,273.81,66.59,270.83,65.29Z" transform="translate(-6 -11)"/><path class="cls-5" d="M154.23,58c1.61-1.23,3.14-2.89,5.33-.9.79.72,1.33-.18,2-.42,3.26-1.19,4.64-.07,4.06,3.38a10,10,0,0,0,0,3.63c.39,2.14-1.79,2.16-3.26,2.4s-2.07-.67-2-2.1.78-2.61,0-4.12c-2.14,1.85-.06,7.56-5.69,6-1.26-2.3,1.41-4.94-.53-7.18C153.82,58.4,153.85,58.17,154.23,58Z" transform="translate(-6 -11)"/><path class="cls-5" d="M246,56.25c1.1,2.53-.92,5.38,1,7.86-1.83,1.15-3.19,3-5.41,1.06-.8-.71-1.27.39-1.89.63-2.24.84-3.76,0-4.09-2.35a6,6,0,0,1,7-6.85C243.74,56.82,244.71,55.83,246,56.25Z" transform="translate(-6 -11)"/><path class="cls-7" d="M154.23,58c0,.23-.06.47-.08.7-1.8,1.58-3,3.93-6.37,4.09,2.06,1.33,3.29-.7,4.64.05-.4,2.51-3.32,4-6.52,3.34-2.53-.5-3.65-2.43-2.9-5C144.41,56.4,149.56,54.93,154.23,58Z" transform="translate(-6 -11)"/><path class="cls-7" d="M263.45,62.54c1.83.07,2,.87.86,2.1-1.84,1.92-6.48,2-8.16.22s-1-4.53,1.14-6.69a6.81,6.81,0,0,1,3-1.72c1.81-.53,3.78-1,4.91.79s-.28,3.31-1.7,4.51a4,4,0,0,1-.87.82C262.91,62.65,263.18,62.46,263.45,62.54Z" transform="translate(-6 -11)"/><path class="cls-8" d="M224.57,57.86c.75-1.22,1.88-1.33,2.88-1.61,2.1-.59,2.9.28,2.79,2.42-.08,1.57-1.21,3.18.07,5,2.25-1.37,2.39-3.2,1.65-5.19-.38-1-.55-1.93.67-2.29A1.81,1.81,0,0,1,235,57.67c1,3.3-1.92,7.94-5.37,8.44-3,.44-4.65-1-4.52-4C225.26,59.48,225.24,59.33,224.57,57.86Z" transform="translate(-6 -11)"/><path class="cls-8" d="M172.42,58.65c-.78,1.8-1.24,3.17-.45,4.64,1.33.7,2.27-1.14,4.12-.23-.67,2.45-2.64,2.89-4.79,3.13-2.6.29-4.45-.64-4.83-3.34-.53-3.78,4.54-7.88,8.14-6.66,1.15.39,2.17,1.08,2,2.5a2.48,2.48,0,0,1-1.9,2.29C173.08,61.39,172.86,60.07,172.42,58.65Z" transform="translate(-6 -11)"/><path class="cls-8" d="M254.57,63.58c-.74,1.86-2.7,2.32-4.51,2.45-2.11.14-2.1-1.64-2-3.16.09-1.89,1.11-3.87-.68-5.46,3.69-3.81,3.69-3.81,5.79-3.9.51,1.2.69,2.71,2.32,3.56-1.79,1.42-3,2.91-2.75,5C252.87,63.21,254.5,62.06,254.57,63.58Z" transform="translate(-6 -11)"/><path class="cls-9" d="M315.82,56.8v1.11c-2.34,1.79-1,4-.76,6.17a3.58,3.58,0,0,1-2.57,1.64c-2,.42-3.34-.06-3.09-2.55.17-1.69,1.09-3.47-.51-5A5.72,5.72,0,0,1,315.82,56.8Z" transform="translate(-6 -11)"/><path class="cls-8" d="M216.86,59.31l-.05-2.08c1.6,1.07,2.62-.61,3.93-.89,2.12-.45,3-.31,2.64,2.15-.28,1.9-1,3.91.47,5.48A4.5,4.5,0,0,1,221,65.85c-2.28.7-3.22-.17-2.92-2.47.13-.93.28-1.86.43-2.79C218.76,59.14,218,59,216.86,59.31Z" transform="translate(-6 -11)"/><path class="cls-10" d="M289.12,56.07c2,2.51-1.2,5.51,1.1,7.72-.5,1.32-1.63,1.67-2.74,2-2.16.65-3.19-.08-3.12-2.41.06-1.77,1.42-3.61-.51-5.1C285.46,56.47,287.31,56.34,289.12,56.07Z" transform="translate(-6 -11)"/><path class="cls-11" d="M315.74,53.32a5.46,5.46,0,0,1-.84,1.07c-1.45,1.07-3.07,1.63-4.66.49-.73-.52-.29-1.42.42-1.83C312.33,52.08,314,51.32,315.74,53.32Z" transform="translate(-6 -11)"/><path class="cls-12" d="M287.26,55.42c-1.06-.07-2.43.17-2.24-1.15.25-1.71,1.89-2,3.37-2.12.86-.08,2,0,1.93,1.06C290.2,55.06,288.57,55.22,287.26,55.42Z" transform="translate(-6 -11)"/><path class="cls-12" d="M224.19,52.83a4.07,4.07,0,0,1-.25.93,3.92,3.92,0,0,1-4.72,1.44.94.94,0,0,1-.4-1.55C220.32,52.2,222,51.46,224.19,52.83Z" transform="translate(-6 -11)"/><path class="cls-13" d="M334.28,59.11c-.71,1.66-.54,3.45-.75,5.18h-1a2,2,0,0,0-.57-1.75c-1-.33-1.87,1-3.18.2,2.43-1.15,5-2.13,4.41-5.49C333.57,57.87,333.92,58.49,334.28,59.11Z" transform="translate(-6 -11)"/><path class="cls-14" d="M301.84,62.37c0-.88-.43-1.88.93-2.49a4.51,4.51,0,0,1-.31,3.79C302.26,63.24,302.05,62.8,301.84,62.37Z" transform="translate(-6 -11)"/><path class="cls-15" d="M263.45,62.54c-.9.58-1.74,1.47-3.12.52.88-1.13,2.26-.65,3.13-1.31Z" transform="translate(-6 -11)"/><path class="cls-1" d="M43.32,13.41c2.75-.06,4.83,1.29,6.65,3.17,1,1,.77,2.06.22,3.19-1.19,2.45-2.25,5-3.54,7.37C45.22,29.82,41,30,38.76,27.5c-3.15-3.4-2.29-10.74,1.53-13.32A5.59,5.59,0,0,1,43.32,13.41Z" transform="translate(-6 -11)"/><path class="cls-16" d="M17.23,62.38c.47-1.66,1.65-1.83,2.83-1.84,5.42,0,10.84,0,16.26-.06,1,0,2.08,0,2.21,1.25s-1.08,1.51-2,1.51c-6.16,0-12.31-.11-18.46-.21C17.85,63,17.61,62.68,17.23,62.38Z" transform="translate(-6 -11)"/><path class="cls-17" d="M18.23,57.83a69.6,69.6,0,0,1,18.89-.73C35.28,59.38,21.22,59.82,18.23,57.83Z" transform="translate(-6 -11)"/><path class="cls-18" d="M148.3,36.18c.25-3.49,0-6.42,2.49-9C152.19,30.6,151.41,33.72,148.3,36.18Z" transform="translate(-6 -11)"/><path class="cls-19" d="M172.78,26.25a10.31,10.31,0,0,1-3.41,8.16A6.92,6.92,0,0,1,172.78,26.25Z" transform="translate(-6 -11)"/><path class="cls-20" d="M256.49,26.59c.39,3.13-.71,5.69-3.42,8.43C252.45,31,254,28.64,256.49,26.59Z" transform="translate(-6 -11)"/><path class="cls-21" d="M130.33,25.12c.85,2.57-.43,3.67-1.75,5.47C127.85,28.05,128.75,26.77,130.33,25.12Z" transform="translate(-6 -11)"/><path class="cls-22" d="M295.68,25.69c1.19,2.56-.23,3.55-1.54,5.17C293.4,28.54,294.2,27.29,295.68,25.69Z" transform="translate(-6 -11)"/><path class="cls-23" d="M201.25,59.31c-.49-2,.23-3.18.8-4.42C203,56.4,202.93,57.73,201.25,59.31Z" transform="translate(-6 -11)"/><path class="cls-23" d="M136.81,61.23c-.83-1.41-.35-2.23.52-3.43A2.82,2.82,0,0,1,136.81,61.23Z" transform="translate(-6 -11)"/><path class="cls-24" d="M136.74,67.18a1.55,1.55,0,0,1-2.64.15C135,66.08,135.91,67.16,136.74,67.18Z" transform="translate(-6 -11)"/><path class="cls-23" d="M338.54,62.22c-.54-1.22,0-2.2.6-3.22C341.32,59.75,340,60,338.54,62.22Z" transform="translate(-6 -11)"/><path class="cls-23" d="M242.05,58.89c-.08,1.48-.15,3-2,4A4.11,4.11,0,0,1,242.05,58.89Z" transform="translate(-6 -11)"/><path class="cls-22" d="M150.37,57.1c.36,2.79-1.29,3.31-3,4.45" transform="translate(-6 -11)"/><path class="cls-22" d="M262.91,56.83c.36,2.79-1.29,3.31-3,4.45" transform="translate(-6 -11)"/><path class="cls-22" d="M331.19,56.77c.47,3.64-4.06,5.14-3,4.46" transform="translate(-6 -11)"/></svg>